/* XPM */
static char *_593138872912[] = {
/* columns rows colors chars-per-pixel */
"16 16 37 1 ",
"  c #5E2820",
". c #5F2820",
"X c #5E2821",
"o c #5F2821",
"O c #5F2822",
"+ c #602820",
"@ c #602821",
"# c #612921",
"$ c #602822",
"% c #612822",
"& c #602922",
"* c #612922",
"= c #622822",
"- c #622922",
"; c #622A22",
": c #632A22",
"> c #642A22",
", c #652A22",
"< c #642A23",
"1 c #662A22",
"2 c #662A23",
"3 c #662B23",
"4 c #662C22",
"5 c #662B24",
"6 c #672B24",
"7 c #672C24",
"8 c #692C24",
"9 c #692D25",
"0 c #6A2C24",
"q c #6B2C24",
"w c #6B2C25",
"e c #6A2D25",
"r c #6B2D25",
"t c #6C2C24",
"y c #6C2D25",
"u c #6D2E26",
"i c None",
/* pixels */
"iiiiiiiiiiiiiiii",
"iiiii%X  X*iiiii",
"iii9% XX**  5iii",
"ii1999**+*1894ii",
"ii929q9tut997tii",
"it99t%5u9uttttti",
"itt9t9ttt2;ttt9i",
"ittttt9t999t;X1i",
"i94 1t*5ttt9OO i",
"i1*1*999tutwOOXi",
"i* *X*ttu;;9* *i",
"ii   X5t9X%q1Xii",
"ii*X   9t9tt**ii",
"iii* X 4tut91iii",
"iiiii;X5uttiiiii",
"iiiiiiiiiiiiiiii"
};
