/* XPM */
static char *_593138842405[] = {
/* columns rows colors chars-per-pixel */
"16 16 30 1 ",
"  c #6C3400",
". c #6C3500",
"X c #6C3501",
"o c #6C3600",
"O c #6C3601",
"+ c #6E3703",
"@ c #6E3803",
"# c #723A06",
"$ c #723B09",
"% c #743E09",
"& c #773F0B",
"* c #724006",
"= c #77400C",
"- c #78410C",
"; c #7A440E",
": c #7B440E",
"> c #7A440F",
", c #7B440F",
"< c #79480C",
"1 c #7A480E",
"2 c #7B4A0E",
"3 c #7C530D",
"4 c #7C530E",
"5 c #7C580D",
"6 c #7C590D",
"7 c #7D5A0C",
"8 c #7D5F0C",
"9 c #7C4310",
"0 c #7A4410",
"q c None",
/* pixels */
"qqqqqqqqqqqqqqqq",
"qqqqq>>>.@#qqqqq",
"qqq0:>>>.  .%qqq",
"qq0>>>>>    .%qq",
"qq>>>>>>.. ..Xqq",
"q3888888>> =,,%q",
"q7888888>1 &>>,q",
"q>>>>288*.  ...q",
"q>=,>288*.XXXXXq",
"q76,7888,,00>>1q",
"q55,5888,,,=>>1q",
"qq,,,0>>    ..qq",
"qq90>>>>  ...$qq",
"qqq9:>>>   .$qqq",
"qqqqq>>0.+#qqqqq",
"qqqqqqqqqqqqqqqq"
};
