/* XPM */
static char *_593138859478[] = {
/* columns rows colors chars-per-pixel */
"16 16 88 1 ",
"  c #32614D",
". c #32624D",
"X c #34624E",
"o c #36624F",
"O c #366250",
"+ c #366350",
"@ c #386350",
"# c #3A6451",
"$ c #386452",
"% c #3A6452",
"& c #3B6452",
"* c #3C6452",
"= c #3D6553",
"- c #3A6454",
"; c #3B6454",
": c #3C6555",
"> c #3E6554",
", c #3E6654",
"< c #3F6654",
"1 c #3F6656",
"2 c #3E6657",
"3 c #3E6658",
"4 c #406656",
"5 c #416657",
"6 c #42675A",
"7 c #43675B",
"8 c #44685A",
"9 c #46685C",
"0 c #47685C",
"q c #48695D",
"w c #496A5E",
"e c #4B6A60",
"r c #4A6A62",
"t c #4C6A60",
"y c #4C6A61",
"u c #4D6B64",
"i c #4E6C65",
"p c #506C64",
"a c #546D6A",
"s c #566E6A",
"d c #566E6C",
"f c #576E6C",
"g c #566E6D",
"h c #586F6D",
"j c #5A706E",
"k c #5B7070",
"l c #5C7070",
"z c #5E7072",
"x c #5E7172",
"c c #607274",
"v c #637376",
"b c #637377",
"n c #657378",
"m c #637478",
"M c #66747A",
"N c #65727F",
"B c #67727F",
"V c #66737F",
"C c #68747B",
"Z c #68747C",
"A c #69757C",
"S c #6A747C",
"D c #6A757C",
"F c #6A757D",
"G c #68767C",
"H c #6A767D",
"J c #68747F",
"K c #6A757F",
"L c #6B757F",
"P c #6A767E",
"I c #6B767E",
"U c #6B767F",
"Y c #6D757E",
"T c #6C767E",
"R c #6C777E",
"E c #6C767F",
"W c #6C777F",
"Q c #657280",
"! c #667280",
"~ c #677280",
"^ c #667380",
"/ c #667480",
"( c #677480",
") c #687480",
"_ c #6B7680",
"` c #6C7680",
"' c #6D7680",
"] c None",
/* pixels */
"]]]]]t84=;g]]]]]",
"]]]t4*:== MZ(]]]",
"]]q#@tcqO6WWZ(]]",
"]h#OSLWLhWs49`~]",
"]l@uWWLWW`4XsW)]",
"`j=:LWWLWn:z__Z~",
"Wc=XZWLWWLWLWW`~",
"WW0 WWWLLWWWW``(",
"'Wc4LWWWCSWWWLW)",
"WLWLWWWv;;C`LWLB",
"WLLWLWZq4XhZcZL~",
"]WWLWLw=#@WsOa~]",
"]YWWt4:=#3`MuBB]",
"]]'Wz4=XX3``_B]]",
"]]]W`Wln`WWZB]]]",
"]]]]]W``Z)(]]]]]"
};
