/* XPM */
static char *_593138801491[] = {
/* columns rows colors chars-per-pixel */
"16 16 43 1 ",
"  c #402D18",
". c #402E18",
"X c #422E18",
"o c #422F18",
"O c #433018",
"+ c #443018",
"@ c #443118",
"# c #443119",
"$ c #473118",
"% c #443219",
"& c #453219",
"* c #463218",
"= c #473218",
"- c #463219",
"; c #463319",
": c #44321A",
"> c #46321A",
", c #46331A",
"< c #473419",
"1 c #463519",
"2 c #47341A",
"3 c #48341A",
"4 c #48351A",
"5 c #49351A",
"6 c #4A351B",
"7 c #49361A",
"8 c #4A361A",
"9 c #4B361A",
"0 c #4A371A",
"q c #4C381A",
"w c #4D381B",
"e c #4D391B",
"r c #4E391A",
"t c #4E3A1B",
"y c #4F3A1B",
"u c #4F3B1C",
"i c #4F3C1D",
"p c #503B1B",
"a c #513D1A",
"s c #503C1B",
"d c #503B1C",
"f c #503C1C",
"g c None",
/* pixels */
"gggggggggggggggg",
"gggggO    5ggggg",
"gggai>   Xy0>ggg",
"ggdfa0   yyO >gg",
"ggfff5   yy   *g",
"gafff0   yy  Xyg",
"gfu5yi<><ii  Oug",
"gf> Oyffaia0>>fg",
"gaO    5i5<ffffg",
"giy<y< 5i  5fffg",
"gfyuuiyaaO  >0ig",
"gg* X5y5y5    <g",
"gg>     Of>  >gg",
"gggO X  5f< Oggg",
"gggg>+ yif<<gggg",
"gggggggggggggggg"
};
