/* XPM */
static char *_593138887064[] = {
/* columns rows colors chars-per-pixel */
"16 16 163 2 ",
"   c #2A343A",
".  c #2E373A",
"X  c #323834",
"o  c #343834",
"O  c #3E3E30",
"+  c #383C35",
"@  c #3A3E34",
"#  c #3C3F35",
"$  c #363C3A",
"%  c #363C3D",
"&  c #383C38",
"*  c #393D39",
"=  c #3A3F3A",
"-  c #3E4032",
";  c #394039",
":  c #3B413B",
">  c #3E4138",
",  c #3D4238",
"<  c #3C4239",
"1  c #3C413A",
"2  c #3E433E",
"3  c #424437",
"4  c #444535",
"5  c #4E4A30",
"6  c #4E4C32",
"7  c #4C4A34",
"8  c #4C4C36",
"9  c #4E4D37",
"0  c #4F4E37",
"q  c #424439",
"w  c #44463A",
"e  c #40433F",
"r  c #44473C",
"t  c #464839",
"y  c #494938",
"u  c #4A4A39",
"i  c #4A4A3A",
"p  c #4A4A3B",
"a  c #4C4C39",
"s  c #4F4E39",
"d  c #4E4E3B",
"f  c #494B3D",
"g  c #4A4C3E",
"h  c #4A4C3F",
"j  c #4C4E3D",
"k  c #4E4E3C",
"l  c #4E4F3D",
"z  c #4E4E3E",
"x  c #4E4E3F",
"c  c #524F36",
"v  c #504E3A",
"b  c #504F3A",
"n  c #4E503E",
"m  c #555237",
"M  c #5A5432",
"N  c #5C5737",
"B  c #5D5834",
"V  c #535138",
"C  c #51513A",
"Z  c #50503B",
"A  c #545239",
"S  c #565238",
"D  c #54523A",
"F  c #52513C",
"G  c #56543C",
"H  c #57543C",
"J  c #56553C",
"K  c #57553C",
"L  c #56543E",
"P  c #585438",
"I  c #5A5639",
"U  c #5B563B",
"Y  c #5E5A38",
"T  c #645A2A",
"R  c #625C36",
"E  c #665E36",
"W  c #605A39",
"Q  c #605A3A",
"!  c #625C3A",
"~  c #625C3B",
"^  c #665E3A",
"/  c #605D3F",
"(  c #655E3C",
")  c #696036",
"_  c #6C6236",
"`  c #6B6238",
"'  c #6B643A",
"]  c #766A36",
"[  c #70673B",
"{  c #746A38",
"}  c #746A3C",
"|  c #756A3C",
" . c #766A3C",
".. c #766B3C",
"X. c #776C3C",
"o. c #786C3C",
"O. c #7C703A",
"+. c #7C703C",
"@. c #7E713C",
"#. c #7E723C",
"$. c #7F723C",
"%. c #424640",
"&. c #424840",
"*. c #464A41",
"=. c #4B4C40",
"-. c #4C4E40",
";. c #4F4F40",
":. c #4C4E43",
">. c #4E5040",
",. c #4F5140",
"<. c #4C5042",
"1. c #4E5142",
"2. c #4E5143",
"3. c #4F5242",
"4. c #505140",
"5. c #505141",
"6. c #515240",
"7. c #505242",
"8. c #505243",
"9. c #565640",
"0. c #505344",
"q. c #525244",
"w. c #535445",
"e. c #545544",
"r. c #545644",
"t. c #585843",
"y. c #595944",
"u. c #5A5A44",
"i. c #5C5C46",
"p. c #626042",
"a. c #676446",
"s. c #6A6442",
"d. c #656348",
"f. c #646249",
"g. c #666448",
"h. c #68664A",
"j. c #6A674A",
"k. c #6E6A4B",
"l. c #6C6A4C",
"z. c #6E6C4C",
"x. c #6F6C4C",
"c. c #716E4C",
"v. c #716E4D",
"b. c #7A7041",
"n. c #7A7142",
"m. c #7B7244",
"M. c #7C7244",
"N. c #74704D",
"B. c #75704D",
"V. c #77724E",
"C. c #7C7448",
"Z. c #78734E",
"A. c #78744E",
"S. c #79744E",
"D. c #7A754E",
"F. c #7B764E",
"G. c #7C764F",
"H. c #7D774F",
"J. c #7E7850",
"K. c #7F7850",
"L. c #80723C",
"P. c #807950",
"I. c None",
/* pixels */
"I.I.I.I.I.+ - C 3 7 4 I.I.I.I.I.",
"I.I.I.q + T 9 m.L { M 6 9 I.I.I.",
"I.I.X ) 9 O.7.P.7.#.N ] B 1 I.I.",
"I.- O b.7.L.F B.B.b.} C U [ : I.",
"I.o 5 F.n R S 3.P.P.L H 9 t *.I.",
"1 9 ` d.h S Q v K.P.P.d._ s.F.I.",
"i ( ' l B.=.} } =.F.P.P.g.Z.w.& ",
"a m.l U k.K.h } +.F 3.-.3.l { i ",
"1 C.q.#.Q h F.r.L O.L.L.L.L.~ % ",
"& p.g.Y c ^ y.K.A.w.7.l v 2.z.&.",
": ~ A.i U O.S t.F.P.P.P.P.J.y.I.",
"I.n 3.v.3.H L.} C l y a a v i I.",
"I.1 a.7.H.B.-.G o.L.E Y #.~ I.I.",
"I.I.: l.v.K.P.F.i.l w r 2 . I.I.",
"I.I.I.I.q.d.q.h.P.P.v.-.I.I.I.I.",
"I.I.I.I.I.I.%.%   %.I.I.I.I.I.I."
};
