/* XPM */
static char *_593138910733[] = {
/* columns rows colors chars-per-pixel */
"16 16 62 1 ",
"  c #7B3E24",
". c #762D38",
"X c #762D3E",
"o c #773036",
"O c #793830",
"+ c #793930",
"@ c #7E4E1E",
"# c #7F5816",
"$ c #7E5418",
"% c #7C4624",
"& c #7C4724",
"* c #7A472F",
"= c #7F6430",
"- c #721F43",
"; c #71124D",
": c #72144D",
"> c #71144E",
", c #711848",
"< c #6B0654",
"1 c #6A0456",
"2 c #6A0556",
"3 c #6D0A52",
"4 c #6D0C51",
"5 c #6E0E51",
"6 c #6C0C52",
"7 c #6E0D52",
"8 c #6C0854",
"9 c #80313B",
"0 c #80323B",
"q c #80313C",
"w c #80323C",
"e c #80323D",
"r c #803E39",
"t c #804600",
"y c #804A04",
"u c #804E07",
"i c #80500A",
"p c #80510B",
"a c #80520C",
"s c #80500E",
"d c #80540E",
"f c #805510",
"g c #805812",
"h c #805A14",
"j c #805C16",
"k c #805F1A",
"l c #80601B",
"z c #80621C",
"x c #80621D",
"c c #80641E",
"v c #804A36",
"b c #804E35",
"n c #806520",
"m c #806622",
"M c #806924",
"N c #806A25",
"B c #806926",
"V c #806D29",
"C c #806D2A",
"Z c #806F2E",
"A c #80702D",
"S c None",
/* pixels */
"SSSSSSSSSSS;311:",
"SSSSSSSSc*85SSS1",
"SSSSSAAAhgsfSSS1",
"SSSZAACChyttuSS3",
"SSSAAACCjtttti5:",
"SSmmmmmmggdii 1S",
"SShhhhhhugdg#5XS",
"SShhhhhhyhd#-,cS",
"SSjglmmmghj.5$zS",
"SSgjlBAAhh+8@gSS",
"S0jgghBAh+1&hjSS",
"S0ShhhBAo8&ghcSS",
"0SScBBAb5@hhlSSS",
"wSSSS=rv$hjcSSSS",
"wSSSeebS#SSSSSSS",
"SwwwSSSSSSSSSSSS"
};
