/* XPM */
static char *_593138921756[] = {
/* columns rows colors chars-per-pixel */
"16 16 69 1 ",
"  c #755C2F",
". c #775D2E",
"X c #795D2E",
"o c #795D2F",
"O c #6C533C",
"+ c #755A31",
"@ c #765A31",
"# c #775C30",
"$ c #7C6029",
"% c #7E6128",
"& c #7E6029",
"* c #7E642A",
"= c #7E6A30",
"- c #7F6E30",
"; c #7F6F31",
": c #7E6D32",
"> c #786538",
", c #786838",
"< c #3F3069",
"1 c #2F257A",
"2 c #2F267B",
"3 c #322777",
"4 c #352A72",
"5 c #362A73",
"6 c #362A74",
"7 c #382A72",
"8 c #382C70",
"9 c #322678",
"0 c #30247A",
"q c #30257A",
"w c #31257A",
"e c #30267A",
"r c #31267A",
"t c #32267A",
"y c #33277A",
"u c #32287A",
"i c #342A7B",
"p c #342B7B",
"a c #362C78",
"s c #332A7C",
"d c #342B7C",
"f c #362D7C",
"g c #372F7C",
"h c #36307D",
"j c #38307C",
"k c #3A327D",
"l c #3C337E",
"z c #39347D",
"x c #3C347E",
"c c #523F58",
"v c #463662",
"b c #483662",
"n c #483861",
"m c #493861",
"M c #473E6F",
"N c #4A3E6A",
"B c #423A77",
"V c #59444F",
"C c #5E494A",
"Z c #554255",
"A c #654D43",
"S c #604A46",
"D c #634C48",
"F c #665042",
"G c #63534F",
"H c #806E30",
"J c #235E80",
"K c #255E80",
"L c None",
/* pixels */
"LLLLLLgywLLLLLLL",
"LLLL74wwqqqwLLKL",
"LL=>@@99qqqqqLLL",
"LLHFOc00qqqqqqLL",
"L;Xccccbqqqqq8bL",
"L;HXHHHX3qqqq@%L",
"zjqd4979qqqqqqqL",
"lfqu0900qqnAAAAL",
"ldqqqqqqqq7vvO%L",
"BMvqqqqqq4444C%L",
"LH%6qqqqCX....XL",
"LBaqqqqqqpuppq1L",
"LL,o@4qqququuqLL",
"LLLGDuqqqqqqqLLL",
"LKLLjfqqqqqqLLLL",
"LLLLLLhsLLLLLLLL"
};
