/* XPM */
static char *_593138929666[] = {
/* columns rows colors chars-per-pixel */
"16 16 30 1 ",
"  c #1E3854",
". c #1E3955",
"X c #1E3956",
"o c #1E3A56",
"O c #1E3A57",
"+ c #1E3A58",
"@ c #1F3A58",
"# c #1E3B58",
"$ c #1F3B58",
"% c #1F3B59",
"& c #1F3C59",
"* c #1F3C5A",
"= c #1F3C5C",
"- c #203B58",
"; c #203C5A",
": c #203C5B",
"> c #203E5C",
", c #203E5E",
"< c #223F5E",
"1 c #213F61",
"2 c #22405F",
"3 c #224060",
"4 c #224061",
"5 c #214162",
"6 c #224062",
"7 c #234062",
"8 c #224162",
"9 c #234162",
"0 c #224262",
"q c None",
/* pixels */
"qqqqqqqqqqqqqqqq",
"qqqqq888888qqqqq",
"qqq8888888888qqq",
"qq@@&:&=>:::@&qq",
"qq            qq",
"q=&@@ & @@@@::>q",
"q88888888888888q",
"q88888888888888q",
"q8888  18888888q",
"q8888=888888888q",
"q88888888228888q",
"qq            qq",
"qq-   @ @    -qq",
"qqq188888888>qqq",
"qqqqq888888qqqqq",
"qqqqqqqqqqqqqqqq"
};
