/* XPM */
static char *_69da62f787e4c5dfd2329505d588346OvZzWh2RiG1lqKF8[] = {
/* columns rows colors chars-per-pixel */
"8 15 24 1 ",
"  c None",
". c #464648",
"X c #4C4C4E",
"o c #4E4E50",
"O c #4E4F50",
"+ c #4E5050",
"@ c #505052",
"# c #515252",
"$ c #545456",
"% c #555556",
"& c #555557",
"* c #555657",
"= c #565658",
"- c #585859",
"; c #5A5A5B",
": c #5A5A5C",
"> c #5C5C5D",
", c #5C5D5E",
"< c #5D5E5E",
"1 c #5E5F60",
"2 c #626263",
"3 c #646464",
"4 c #646465",
"5 c #656666",
/* pixels */
"        ",
"        ",
"        ",
"        ",
"        ",
"        ",
"<$=OX$2$",
"#=-#<+O.",
".:51<25-",
"        ",
"        ",
"        ",
"        ",
"        ",
"        "
};
