/* XPM */
static char * contrast_flash_xpm[] = {
"16 16 135 2",
"  	c None",
". 	c #754835",
"+ 	c #F9BEAC",
"@ 	c #FFEEDC",
"# 	c #8C4A3A",
"$ 	c #340000",
"% 	c #380903",
"& 	c #FFF5E1",
"* 	c #C29077",
"= 	c #FFF1D6",
"- 	c #A76F54",
"; 	c #FFE0C7",
"> 	c #CAA796",
", 	c #1B0000",
"' 	c #190000",
") 	c #FFF8DD",
"! 	c #FFF6D6",
"~ 	c #250000",
"{ 	c #230000",
"] 	c #220000",
"^ 	c #DDD0B4",
"/ 	c #BCB9A1",
"( 	c #FFF0D7",
"_ 	c #160000",
": 	c #FFEEC2",
"< 	c #FFE9B8",
"[ 	c #210200",
"} 	c #553A03",
"| 	c #FFFECA",
"1 	c #8F7F4C",
"2 	c #FFFFD4",
"3 	c #35250B",
"4 	c #E9DAB3",
"5 	c #FFFFCF",
"6 	c #FFEDB5",
"7 	c #FFF5B8",
"8 	c #FFFABB",
"9 	c #FFFFC1",
"0 	c #FEEEB0",
"a 	c #FFF7BD",
"b 	c #FBEFBB",
"c 	c #160700",
"d 	c #F8EABD",
"e 	c #FFF9C3",
"f 	c #0E0400",
"g 	c #0E0500",
"h 	c #130B00",
"i 	c #F7EFA6",
"j 	c #FFFFB7",
"k 	c #CDC483",
"l 	c #180E00",
"m 	c #0F0000",
"n 	c #F9E5B0",
"o 	c #F6E6AB",
"p 	c #FFFCBC",
"q 	c #FEF6AE",
"r 	c #181500",
"s 	c #F8F5A6",
"t 	c #0A0900",
"u 	c #0C0A00",
"v 	c #FFFFBF",
"w 	c #E1DB9D",
"x 	c #271B00",
"y 	c #6A5B32",
"z 	c #FFFDDC",
"A 	c #F0DE92",
"B 	c #120500",
"C 	c #FFFFB3",
"D 	c #FFFFAB",
"E 	c #555300",
"F 	c #080B00",
"G 	c #0D0F00",
"H 	c #FFFFBD",
"I 	c #161500",
"J 	c #6F6834",
"K 	c #E0DCC0",
"L 	c #BCB9A7",
"M 	c #7E6757",
"N 	c #FFF7EF",
"O 	c #FFF49B",
"P 	c #FFF79D",
"Q 	c #0F0800",
"R 	c #0E0900",
"S 	c #FFFFAF",
"T 	c #E8E794",
"U 	c #FFFFBA",
"V 	c #CFCE8B",
"W 	c #FCF7BF",
"X 	c #110800",
"Y 	c #BCBBA5",
"Z 	c #110000",
"` 	c #FFF8F4",
" .	c #FFF6FB",
"..	c #D5CC6F",
"+.	c #FAF196",
"@.	c #251F00",
"#.	c #E0DB89",
"$.	c #BCB66A",
"%.	c #A49D59",
"&.	c #FFFFCA",
"*.	c #FDF0D0",
"=.	c #190700",
"-.	c #120000",
";.	c #F6DCE9",
">.	c #D8D180",
",.	c #FFFFB6",
"'.	c #EBE297",
").	c #F1E7A0",
"!.	c #FFFFC3",
"~.	c #FFFFC8",
"{.	c #170400",
"].	c #FFF7DF",
"^.	c #736052",
"/.	c #2F1C18",
"(.	c #523D42",
"_.	c #EBE2A9",
":.	c #DECE9A",
"<.	c #140000",
"[.	c #2B1400",
"}.	c #E3CAA2",
"|.	c #FFE8C7",
"1.	c #FFE5CA",
"2.	c #CCC3B2",
"3.	c #C9C1B5",
"4.	c #DFCEC6",
"5.	c #FFFADC",
"6.	c #FEDFC3",
"7.	c #270300",
"8.	c #FFE4CC",
"9.	c #FFF7E2",
"0.	c #1F0200",
"a.	c #EED9C8",
"b.	c #1D0000",
"c.	c #200000",
"d.	c #5B3423",
"          . + @ # $ %           ",
"          . + @ # $ %           ",
"          & * = - ; > ,         ",
"        ' ) ! ~ { ] ^ /         ",
"        ( _ : < [ } | 1 2       ",
"      3 4 5 6 7 8 9 0 a b       ",
"    c d e f g h i j k l 5 m     ",
"  n o p q r s t u v w x y z     ",
"  A B C D E F G H I J K L M N   ",
"  O P Q R S T U V W X Y Z `  .  ",
"  ..+.Q @.#.$.%.&.2 *.=.-.Z ;.  ",
"    >.,.'.).!.~.Z {.].^./.(.    ",
"      _.:.<.[.}.|.1.2.3.4.      ",
"          5.6.7.8.9.0.a.        ",
"            b.  c.d.            ",
"                                "};
