/* XPM */
static char *result[] = {
/* columns rows colors chars-per-pixel */
"16 16 55 1 ",
"  c #BC4F41",
". c #BD4F41",
"X c #BE4F41",
"o c #BD4F42",
"O c #BF4F42",
"+ c #BD5041",
"@ c #BE5041",
"# c #BF5041",
"$ c #BD5042",
"% c #BE5042",
"& c #BF5042",
"* c #BF5142",
"= c #C15143",
"- c #C25143",
"; c #C35143",
": c #C15243",
"> c #C25242",
", c #C25243",
"< c #C35243",
"1 c #C45243",
"2 c #C55243",
"3 c #C55244",
"4 c #C55344",
"5 c #C75344",
"6 c #C65345",
"7 c #C75444",
"8 c #C85345",
"9 c #C85445",
"0 c #C95445",
"q c #CA5545",
"w c #C95446",
"e c #CB5546",
"r c #CC5645",
"t c #CD5546",
"y c #CC5646",
"u c #CD5647",
"i c #CE5647",
"p c #CE5747",
"a c #D05747",
"s c #D25848",
"d c #D25849",
"f c #D35849",
"g c #D25949",
"h c #D35949",
"j c #D45849",
"k c #D45949",
"l c #D55949",
"z c #D65949",
"x c #D75A49",
"c c #D6594A",
"v c #D55A4A",
"b c #D65A4A",
"n c #D75A4A",
"m c #D75B4A",
"M c None",
/* pixels */
"MMMMMMMMMMMMMMMM",
"MMMMM-.  .>MMMMM",
"MMMg=   ,< XaMMM",
"MMtcbi<O#&7lsrMM",
"MMlwjlcncnnipnMM",
"Mxijn-qnnnnnnnnM",
"Mnnjnkznn66nnzfM",
"Mnnbnnvnndsn3*8M",
"Mni+wn:wnnns % M",
"Me#9Ochznnnco .M",
"M= &.wnnn,;b< ,M",
"MM   .unc$@c0 MM",
"MM1    hnjkn74MM",
"MMM2   ynnnl5MMM",
"MMMMM> ynnmMMMMM",
"MMMMMMMMMMMMMMMM"
};
