/* XPM */
static char *result[] = {
/* columns rows colors chars-per-pixel */
"16 16 40 1 ",
"  c #D76900",
". c #D76A00",
"X c #D86A01",
"o c #D96A01",
"O c #D86B01",
"+ c #D86A02",
"@ c #D86B02",
"# c #DD6E06",
"$ c #DD6F06",
"% c #E3750C",
"& c #E4750D",
"* c #E47F0C",
"= c #E67811",
"- c #E87A10",
"; c #ED7F16",
": c #E5800C",
"> c #EE8017",
", c #F08219",
"< c #F4871D",
"1 c #F4871E",
"2 c #F5871E",
"3 c #F5871F",
"4 c #F6871E",
"5 c #F6871F",
"6 c #F6881D",
"7 c #F5881E",
"8 c #F6881E",
"9 c #F58F1C",
"0 c #F29119",
"q c #F4901B",
"w c #F5901B",
"e c #F6941D",
"r c #F7A71B",
"t c #F7A61C",
"y c #F9B11A",
"u c #F9B21A",
"i c #FAB419",
"p c #FAB519",
"a c #FABE19",
"s c None",
/* pixels */
"ssssssssssssssss",
"sssss371o$%sssss",
"sss56222   O-sss",
"ss522222    .-ss",
"ss622222     +ss",
"staaaaaa2w >22;s",
"siaaaaaa2q >22,s",
"s7222eaa*     Os",
"s6222eaa:     +s",
"spy2uaaa2222229s",
"sry2yaaa2222220s",
"ss622222     @ss",
"ss522222    .=ss",
"sss58222   @=sss",
"sssss<47X#&sssss",
"ssssssssssssssss"
};
