/* XPM */
static char *result[] = {
/* columns rows colors chars-per-pixel */
"16 16 103 2 ",
"   c #65C29A",
".  c #64C39A",
"X  c #67C39B",
"o  c #68C49C",
"O  c #68C59D",
"+  c #6BC59E",
"@  c #6DC59E",
"#  c #6DC69F",
"$  c #6CC5A1",
"%  c #6FC7A3",
"&  c #70C6A0",
"*  c #74C9A2",
"=  c #74C8A3",
"-  c #75C8A3",
";  c #76C8A4",
":  c #75C8A7",
">  c #76C9A7",
",  c #79C9A5",
"<  c #7ACAA6",
"1  c #7BCAA7",
"2  c #74C8A8",
"3  c #77CAAA",
"4  c #7DCAA8",
"5  c #7DCBA9",
"6  c #7ECBA9",
"7  c #7ECCAB",
"8  c #7BCBAF",
"9  c #7CCBAE",
"0  c #7DCBB0",
"q  c #81CBAC",
"w  c #82CDAE",
"e  c #83CEB4",
"r  c #86CEB6",
"t  c #88D0B4",
"y  c #8DD0B7",
"u  c #8ED1B8",
"i  c #8FD2BA",
"p  c #92D3BD",
"a  c #93D4C3",
"s  c #96D4C0",
"d  c #97D5C0",
"f  c #97D5C1",
"g  c #9AD6C8",
"h  c #9DD7CA",
"j  c #9FD8C9",
"k  c #A8DAD3",
"l  c #ABDBD3",
"z  c #A8DAD4",
"x  c #ACDCD4",
"c  c #ACDDD8",
"v  c #ADDCD9",
"b  c #AEDDD9",
"n  c #B0DFD8",
"m  c #B4DFDC",
"M  c #B7DFDF",
"N  c #B6E0E0",
"B  c #B8E0E0",
"V  c #BBE1E4",
"C  c #BCE2E5",
"Z  c #C0E3E8",
"A  c #C1E4E8",
"S  c #C6E6ED",
"D  c #C6E6EE",
"F  c #C6E7EF",
"G  c #CAE6F1",
"H  c #CCE7F3",
"J  c #CCE8F3",
"K  c #CAE4FE",
"L  c #CBE5FE",
"P  c #CBE5FF",
"I  c #CBE6FF",
"U  c #CCE5FE",
"Y  c #CCE5FF",
"T  c #CDE5FF",
"R  c #CDE6FE",
"E  c #CDE7FE",
"W  c #CEE7FE",
"Q  c #CEE7FF",
"!  c #CFE8F9",
"~  c #D0E9F6",
"^  c #D3E9F9",
"/  c #D1EBF9",
"(  c #D2EAF8",
")  c #D3EAF9",
"_  c #D4EAFA",
"`  c #D4EBFA",
"'  c #D4EBFB",
"]  c #D1E8FE",
"[  c #D1E9FE",
"{  c #D0E8FF",
"}  c #D6EBFC",
"|  c #D7EBFD",
" . c #D4EAFE",
".. c #D5EAFE",
"X. c #D6EAFE",
"o. c #D6EBFE",
"O. c #D7EBFE",
"+. c #D7ECFD",
"@. c #D7ECFE",
"#. c #D8ECFD",
"$. c #D9ECFD",
"%. c #D8ECFE",
"&. c None",
/* pixels */
"&.&.&.&.&.f t 7 5 : v &.&.&.&.&.",
"&.&.&.d 1 , < < < . F o.W &.&.&.",
"&.&.i * % a Z p # e %.%.@.E &.&.",
"&.n ; $ ^ %.%._ b %.l q r O.T &.",
"&.M & g %.%.%.%.%.@.7 o k %.{ &.",
"#.m < 3 %.%.%.%.%.D 9 C %.%.@.P ",
"@.A < X / %.%.%.%.%.%.%.%.%.%.Y ",
"%.%.u   } %.%.%.%.%.%.%.%.%.%.I ",
"%.%.Z 0 %.%.%.%.~ ) %.%.%.%.%.I ",
"@.%.%.%.%.%.%.S 4 > H %.%.%.%.I ",
"#.%.%.%.%.%.( y < X c ' V %.X.L ",
"&.%.%.%.%.` s < * 2 %.x @ z R &.",
"&.+.%.%.j 6 < < = 0 %.J h ! K &.",
"&.&.%.%.B w - + O 8 %.%...K &.&.",
"&.&.&.$.%.+.N G %.%.%.[ U &.&.&.",
"&.&.&.&.&.| @.o. .] Q &.&.&.&.&."
};
