/* XPM */
static char *result[] = {
/* columns rows colors chars-per-pixel */
"16 16 58 1 ",
"  c #805A2F",
". c #815B2F",
"X c #845D2F",
"o c #835D30",
"O c #845E30",
"+ c #855E30",
"@ c #865F30",
"# c #866030",
"$ c #876030",
"% c #886131",
"& c #896231",
"* c #896232",
"= c #896332",
"- c #8A6332",
"; c #8A6432",
": c #8B6432",
"> c #8B6532",
", c #8C6531",
"< c #8E6531",
"1 c #8D6630",
"2 c #8C6532",
"3 c #8E6533",
"4 c #8D6632",
"5 c #8D6633",
"6 c #8E6732",
"7 c #8E6733",
"8 c #8F6833",
"9 c #906833",
"0 c #916933",
"q c #926A33",
"w c #936A33",
"e c #916A34",
"r c #926B34",
"t c #936B34",
"y c #956C34",
"u c #946D34",
"i c #966D34",
"p c #956E34",
"a c #976F34",
"s c #976F35",
"d c #987034",
"f c #987035",
"g c #997035",
"h c #9B7235",
"j c #9A7136",
"k c #9A7236",
"l c #9B7336",
"z c #9C7336",
"x c #9D7436",
"c c #9E7536",
"v c #9F7636",
"b c #9E7637",
"n c #A07737",
"m c #A17836",
"M c #A07837",
"N c #A17837",
"B c #A27836",
"V c None",
/* pixels */
"VVVVVVVVVVVVVVVV",
"VVVVV#    wVVVVV",
"VVVBN>   oxd%VVV",
"VVNNNs   hN# &VV",
"VVNNNp   cj   1V",
"VNNNNp   zk  @hV",
"VNbqcN7&tNn. =NV",
"VN2 OzNNNNNg*;NV",
"VN*    yNe8MNNNV",
"VNl4s5XuN  rNNNV",
"VmNvbNNNN+  @aNV",
"VV,  qfaxi    3V",
"VV*     @N:  -VV",
"VVV*    9N0 =VVV",
"VVVV<$.gNN67VVVV",
"VVVVVVVVVVVVVVVV"
};
