/* XPM */
static char *result[] = {
/* columns rows colors chars-per-pixel */
"16 16 177 2 ",
"   c #556775",
".  c #5D6E76",
"X  c #656F6A",
"o  c #677169",
"O  c #6F786A",
"+  c #757A67",
"@  c #7C7D61",
"#  c #787E6A",
"$  c #6F7870",
"%  c #6D7873",
"&  c #6C797A",
"*  c #707A71",
"=  c #747E72",
"-  c #737E76",
";  c #7A8066",
":  c #7B826F",
">  c #778173",
",  c #768076",
"<  c #7A8371",
"1  c #7C867D",
"2  c #83876E",
"3  c #898A6A",
"4  c #9C9561",
"5  c #9D9864",
"6  c #979468",
"7  c #98966B",
"8  c #99986D",
"9  c #9D9A6E",
"0  c #838773",
"q  c #8C8F72",
"w  c #888D74",
"e  c #80887E",
"r  c #888E78",
"t  c #909070",
"y  c #929270",
"u  c #939370",
"i  c #929373",
"p  c #969772",
"a  c #939576",
"s  c #929577",
"d  c #989873",
"f  c #9E9B70",
"g  c #9E9C72",
"h  c #9F9E74",
"j  c #9D9D76",
"k  c #93977F",
"l  c #95997D",
"z  c #9C9C78",
"x  c #9D9C79",
"c  c #9C9E7A",
"v  c #9A9C7C",
"b  c #9B9C7D",
"n  c #9D9F7D",
"m  c #A39E6B",
"M  c #A09C74",
"N  c #A09F79",
"B  c #AAA46E",
"V  c #ACA46F",
"C  c #B3A764",
"Z  c #B1A86F",
"A  c #BAAF69",
"S  c #B8AE6E",
"D  c #BDB36F",
"F  c #A1A073",
"G  c #A6A270",
"H  c #A7A374",
"J  c #AEA977",
"K  c #ADAA77",
"L  c #A5A279",
"P  c #ABA97B",
"I  c #ACA978",
"U  c #AEAA79",
"Y  c #B5AD72",
"T  c #B5AD73",
"R  c #C8B353",
"E  c #C3B76D",
"W  c #CDBD6C",
"Q  c #D2BF6D",
"!  c #C1B572",
"~  c #C0B573",
"^  c #C0B374",
"/  c #C4B974",
"(  c #C4B976",
")  c #CABC77",
"_  c #CCBD74",
"`  c #C1BA7E",
"'  c #D8C56D",
"]  c #D6C370",
"[  c #D6C775",
"{  c #ECD36B",
"}  c #E9D36F",
"|  c #E0CE76",
" . c #E8D377",
".. c #E9D577",
"X. c #EAD477",
"o. c #ECD677",
"O. c #EED877",
"+. c #EFD977",
"@. c #EBD578",
"#. c #F7DF77",
"$. c #F9DF73",
"%. c #F7DF78",
"&. c #FEE477",
"*. c #FBE278",
"=. c #FCE378",
"-. c #FDE478",
";. c #FEE478",
":. c #FFE578",
">. c #858E80",
",. c #859081",
"<. c #8C9482",
"1. c #939980",
"2. c #999D81",
"3. c #9B9D80",
"4. c #9D9F81",
"5. c #989E86",
"6. c #9AA083",
"7. c #9EA180",
"8. c #9EA281",
"9. c #9FA281",
"0. c #9FA382",
"q. c #9EA384",
"w. c #9EA285",
"e. c #9FA385",
"r. c #9DA286",
"t. c #9FA486",
"y. c #A1A383",
"u. c #A2A481",
"i. c #A0A485",
"p. c #A1A687",
"a. c #A6A987",
"s. c #ACAB80",
"d. c #A8AB87",
"f. c #A2A588",
"g. c #A9AA89",
"h. c #B1B186",
"j. c #B2B288",
"k. c #B5B388",
"l. c #B7B78C",
"z. c #C5BF84",
"x. c #CEC78C",
"c. c #D4C883",
"v. c #CAC690",
"b. c #CBC790",
"n. c #CBC791",
"m. c #C8C592",
"M. c #D1CD94",
"N. c #D3CE94",
"B. c #D9D397",
"V. c #DBD596",
"C. c #DDD797",
"Z. c #DED798",
"A. c #E2DB99",
"S. c #E2DB9A",
"D. c #E8DF9A",
"F. c #F5E082",
"G. c #F5E285",
"H. c #F6E589",
"J. c #F7E589",
"K. c #F9E88F",
"L. c #EAE19A",
"P. c #EEE49C",
"I. c #F0E69C",
"U. c #F1E69C",
"Y. c #F2E79D",
"T. c #F1E89D",
"R. c #F2E89C",
"E. c #F5EA9D",
"W. c #F6EB9D",
"Q. c #F7EB9E",
"!. c #F8EC9E",
"~. c #FAEE9E",
"^. c #FEF19F",
"/. c #FFF29F",
"(. c #FDF1A0",
"). c #FFF2A0",
"_. c None",
/* pixels */
"_._._._._.+ # F 2 6 3 _._._._._.",
"_._._.0 O R 8 J.P } C 5 7 _._._.",
"_._.X Q f $.9.).y.-.S { A < _._.",
"_.; @ F.0.:.N P.D.G...G Y | , _.",
"_.o 4 Q.n E B q.)./.s.U g r <._.",
"> 9 ] n.l V ! b ^.).).v.' c.U._.",
"i ) [ v L.k  .X.k E.).).b.R.g.* ",
"p H.c T V.^.1.@.#.L 8.6.4.x o.y ",
": K.i.=.~ s W.d.K %.:.:.:.:.( % ",
"$ z.M.^ m _ k.).I.a.u.b 7.w.C.,.",
"= ` T.a Z &.H h.!.).^.).).(.j._.",
"_.h r.S.e.I ;.O.H j t d z M u _.",
"_.< x.t.~.L.2.J +.:.W D *./ _._.",
"_._.- B.A.).).Y.l.3.q w 1 . _._.",
"_._._._.f.m.p.N.^.).Z.5._._._._.",
"_._._._._._.>.&   e _._._._._._."
};
