/* XPM */
static char *result[] = {
/* columns rows colors chars-per-pixel */
"16 16 77 1 ",
"  c #F67D47",
". c #F2725F",
"X c #EE5F6D",
"o c #ED5A70",
"O c #ED5A7B",
"+ c #F27060",
"@ c #FF6376",
"# c #FF6278",
"$ c #FF6378",
"% c #FF6379",
"& c #FF6478",
"* c #FF7C72",
"= c DarkOrange",
"- c #FF9307",
"; c #FF9408",
": c #FF9C10",
"> c #FFA115",
", c #FFA217",
"< c #FFA317",
"1 c #FEA11B",
"2 c #FFA81B",
"3 c #FFA81C",
"4 c #FFAA1F",
"5 c #FB9D3B",
"6 c #FB9D3C",
"7 c #FFAF23",
"8 c #FEAF2B",
"9 c #FFB024",
"0 c #FFB329",
"q c #FFB428",
"w c #FFB72B",
"e c #FDA831",
"r c #FDA931",
"t c #FFBE33",
"y c #FFC136",
"u c #FFC339",
"i c #FFC53A",
"p c #FFC63B",
"a c #FFC83D",
"s c #F78D48",
"d c #F88E49",
"f c #F58E5F",
"g c #FF936D",
"h c #FF956C",
"j c #FF9C6A",
"k c #FFCA41",
"l c #FFCC43",
"z c #FFCC44",
"x c #FFCD44",
"c c #FFD249",
"v c #FFD34A",
"b c #FFD24B",
"n c #FFDA52",
"m c #FFDA53",
"M c #FFDF5A",
"N c #FFE15A",
"B c #FFC861",
"V c #E53E86",
"C c #E2259B",
"Z c #E2279A",
"A c #E3289A",
"S c #E23091",
"D c #D307AD",
"F c #D50AAB",
"G c #D60DA9",
"H c #D70FA8",
"J c #D408AC",
"K c #D509AC",
"L c #D710A7",
"P c #D711A7",
"I c #D917A3",
"U c #DA14A5",
"Y c #DA15A5",
"T c #DA18A2",
"R c #DC1BA2",
"E c #DD1AA4",
"W c None",
/* pixels */
"WWWWWWWWWWWCUDKA",
"WWWWWWWWpfHRWWWF",
"WWWWWNNNq714WWWJ",
"WWWNNNnnq-==:WWY",
"WWWNNNmmq;===,EZ",
"WWkllllz99<>> GW",
"WWqqqqqq;q2q8IOW",
"WWqqqqqq;q3qVSiW",
"WWqqtllx9qqoTeuW",
"WWqqtbNNqq+L5qWW",
"W@0qqqvNq.GdqwWW",
"W$WqqqvNXPsqqpWW",
"#WWalcMjT6qqyWWW",
"$WWWWB*grqwpWWWW",
"$WWW%&hWiWWWWWWW",
"W$$$WWWWWWWWWWWW"
};
