/* XPM */
static char *result[] = {
/* columns rows colors chars-per-pixel */
"16 16 78 1 ",
"  c #F0BA5D",
". c #F2BA5C",
"X c #F0BA5F",
"o c #F2BA5E",
"O c #D8A678",
"+ c #EBB562",
"@ c #EEB760",
"# c #EBB464",
"$ c #F8C052",
"% c #FBC152",
"& c #FCC251",
"* c #FCC855",
"= c #FDD55E",
"- c #F0CA6F",
"; c #FCDA63",
": c #FFDC61",
"> c #FEDD61",
", c #FEDE62",
"< c #F1D070",
"1 c #7E61D4",
"2 c #654EEE",
"3 c #6D53E6",
"4 c #6D55E5",
"5 c #6F56E4",
"6 c #6C54E7",
"7 c #7157E0",
"8 c #604AF3",
"9 c #614AF3",
"0 c #634CF0",
"q c #634DF0",
"w c #614DF3",
"e c #634CF3",
"r c #604AF4",
"t c #624DF4",
"y c #634FF4",
"u c #634FF5",
"i c #644FF4",
"p c #654FF5",
"a c #6550F4",
"s c #6450F5",
"d c #6551F5",
"f c #6651F5",
"g c #6753F6",
"h c #6654F6",
"j c #6854F6",
"k c #6855F6",
"l c #6956F6",
"z c #6956F7",
"x c #6C58F1",
"c c #6C5AF7",
"v c #6C5AF8",
"b c #6E5DF8",
"n c #6D5EF9",
"m c #7061F9",
"M c #7365FA",
"N c #7366FB",
"B c #7464FA",
"V c #7768FB",
"C c #7769FB",
"Z c #9271BF",
"A c #A47EAE",
"S c #8F6DC2",
"D c #8F6FC3",
"F c #8D6CC5",
"G c #937DD3",
"H c #8E7CE0",
"J c #8475EC",
"K c #49BCFF",
"L c #4ABDFF",
"P c #B3899E",
"I c #BC9293",
"U c #AA83A7",
"Y c #CD9F83",
"T c #CA9A86",
"R c #C1958E",
"E c #C39791",
"W c #C7A99E",
"Q c None",
/* pixels */
"QQQQQQbf9QQQQQQQ",
"QQQQBg888888QQLQ",
"QQ=-o@0888888QQQ",
"QQ:YRP88888888QQ",
"Q,*UAAAZ888887SQ",
"Q;%%%%%$28888+&Q",
"Nm8kukkd8888888Q",
"Cv8iesst88DTTTTQ",
"Vc888888885FFO&Q",
"HG188888q4444I&Q",
"Q>&38888I     .Q",
"QJx888888jakl98Q",
"QQ<X#6888ywsp8QQ",
"QQQWE28888888QQQ",
"QKQQMz88888rQQQQ",
"QQQQQQnhQQQQQQQQ"
};
