/* XPM */
static char *result[] = {
/* columns rows colors chars-per-pixel */
"16 16 41 1 ",
"  c #3B70A8",
". c #3B71A8",
"X c #3B71A9",
"o c #3C70A9",
"O c #3C72AA",
"+ c #3C72AB",
"@ c #3D72AB",
"# c #3C72AC",
"$ c #3D74AD",
"% c #3D74AE",
"& c #3D74AF",
"* c #3D75AF",
"= c #3E75AF",
"- c #3D75B0",
"; c #3E75B0",
": c #3D76B0",
"> c #3E76B1",
", c #3F76B1",
"< c #3E76B2",
"1 c #3E77B2",
"2 c #3F77B3",
"3 c #3E78B3",
"4 c #3F78B4",
"5 c #3F78B5",
"6 c #3F79B5",
"7 c #4079B6",
"8 c #407AB8",
"9 c #417CB9",
"0 c #417DBB",
"q c #437FBC",
"w c #437FBE",
"e c #447FC1",
"r c #4380BF",
"t c #4380C0",
"y c #4381C2",
"u c #4381C3",
"i c #4481C2",
"p c #4481C3",
"a c #4482C3",
"s c #4582C3",
"d c None",
/* pixels */
"dddddddddddddddd",
"dddddaaaaaaddddd",
"dddaaaaaaaaauddd",
"dd>=14777763:<dd",
"dd.          .dd",
"d8<;&$$$**->259d",
"daaaaaaaaaaaaaad",
"daaaaaaaaaaaaaad",
"daaa0O%paaaaaaad",
"daaay0waaaaaaaad",
"daaaairrrrtiaasd",
"dd@X         Xdd",
"dd, o+###@X  ,dd",
"dddeaaaaaaaiqddd",
"dddddaaaaaaddddd",
"dddddddddddddddd"
};
