/* XPM */
static char * axis_xpm[] = {
"8 15 24 1",
" 	c None",
".	c #B8B9BB",
"+	c #A9A9AC",
"@	c #AAAAAD",
"#	c #9B9C9F",
"$	c #97989A",
"%	c #A9A9AB",
"&	c #C4C4C5",
"*	c #A6A7A9",
"=	c #9FA0A2",
"-	c #A9AAAC",
";	c #AEAFB1",
">	c #A1A2A4",
",	c #B9BABB",
"'	c #9C9EA0",
")	c #9C9DA0",
"!	c #8A8B8E",
"~	c #B3B4B6",
"{	c #C9CACB",
"]	c #BCBDBE",
"^	c #B7B8B9",
"/	c #C6C7C8",
"(	c #C7C8C9",
"_	c #B3B4B5",
"        ",
"        ",
"        ",
"        ",
"        ",
"        ",
".+@#$%&*",
"=-;>,')!",
"!~{]^/(_",
"        ",
"        ",
"        ",
"        ",
"        ",
"        "};
