/* XPM */
static char *result[] = {
/* columns rows colors chars-per-pixel */
"16 16 115 2 ",
"   c #2B1F18",
".  c #2D2119",
"X  c #2F2319",
"o  c #36271D",
"O  c #36281D",
"+  c #38291D",
"@  c #382A1E",
"#  c #3C2B1F",
"$  c #412F22",
"%  c #423122",
"&  c #433023",
"*  c #423124",
"=  c #463324",
"-  c #473324",
";  c #463325",
":  c #493426",
">  c #4A3627",
",  c #4B3727",
"<  c #4C3727",
"1  c #4B3828",
"2  c #4D3828",
"3  c #4D3928",
"4  c #4D3929",
"5  c #4F392A",
"6  c #513B2B",
"7  c #553D2C",
"8  c #57402E",
"9  c #5B4230",
"0  c #5C4330",
"q  c #5E4531",
"w  c #5E4632",
"e  c #614533",
"r  c #624533",
"t  c #604632",
"y  c #614732",
"u  c #624733",
"i  c #634734",
"p  c #634834",
"a  c #644835",
"s  c #664935",
"d  c #664A35",
"f  c #694C37",
"g  c #694D37",
"h  c #6B4D38",
"j  c #6C4F39",
"k  c #6F4F3A",
"l  c #6F503A",
"z  c #71523C",
"x  c #77533D",
"c  c #75553E",
"v  c #77563F",
"b  c #795840",
"n  c #7C5B41",
"m  c #7D5A42",
"M  c #825E44",
"N  c #836045",
"B  c #8E684B",
"V  c #966C4F",
"C  c #9A6D4F",
"Z  c #987050",
"A  c #9A7051",
"S  c #9B7251",
"D  c #9A7152",
"F  c #9D7452",
"G  c #A07654",
"H  c #A27755",
"J  c #A37856",
"K  c #AA7A59",
"L  c #A87C58",
"P  c #AB7E59",
"I  c #AF7D5B",
"U  c #AC7F5A",
"Y  c #AC7F5B",
"T  c #AD7F5C",
"R  c #B57F5F",
"E  c #B0815D",
"W  c #B4835E",
"Q  c #B5845F",
"!  c #B8845F",
"~  c #B68660",
"^  c #B78660",
"/  c #B98561",
"(  c #B88661",
")  c #B88761",
"_  c #BC8762",
"`  c #B98861",
"'  c #BA8862",
"]  c #BB8A62",
"[  c #BD8B63",
"{  c #BF8964",
"}  c #BE8C64",
"|  c #BF8D65",
" . c #C08A64",
".. c #C18B65",
"X. c #C38C66",
"o. c #C58E67",
"O. c #C59168",
"+. c #C89169",
"@. c #C89369",
"#. c #C9926B",
"$. c #C9946A",
"%. c #CA956B",
"&. c #CD956B",
"*. c #CC966B",
"=. c #CD966C",
"-. c #CD976C",
";. c #CF976C",
":. c #CE976D",
">. c #CE986D",
",. c #CF986D",
"<. c #CF996D",
"1. c #D0996D",
"2. c #D0996E",
"3. c #D19A6E",
"4. c None",
/* pixels */
"4.4.4.4.4.+ % O 4.4.4.4.4.4.4.4.",
"4.4.4.4.% ( 3.3.T 8   4.4.4.4.4.",
"4.4.4.4.0 >.3.3.^ 3.} q . 4.4.4.",
"4.4.4.4.m *.3.E # g 3.3.B 4.4.4.",
"4.4.4.$ ' Z 3.@.; F 3.3.,.X 4.4.",
"4.4.4.6 =.3.O.2.<.3.3.3.3.@ 4.4.",
": e i ! 3.N r C %.3.$.j @.G 4.4.",
"p .._ 1.3.d R x Y 3.| 5 [ 3.S 4.",
"s / K :.3.H u f 2.L ] 3.3.3.3., ",
"a X.X.z v 3.3.3.3.-.~ 3.D 3.3.w ",
"< / X.k c 3.3.3.,.3.3.n & b 3.y ",
"4.7  .X.o.&.,.3.1 Y 3.U o P 3.y ",
"4.4.A X.{ h t Q ` 3.<.3.) 3.3.y ",
"4.4.4.4 2 4.4.= W 3.J ;.V M +.9 ",
"4.4.4.4.4.4.4.4.; I #.l 4.4.> - ",
"4.4.4.4.4.4.4.4.4.* 3 4.4.4.4.4."
};
